<svg width="40" height="40" viewBox="0 0 40 40" fill="none" xmlns="http://www.w3.org/2000/svg">
<path fill-rule="evenodd" clip-rule="evenodd" d="M40.0167 20.0083C40.0167 31.0586 31.0586 40.0167 20.0083 40.0167C8.95803 40.0167 0 31.0586 0 20.0083C0 8.95803 8.95803 0 20.0083 0C31.0586 0 40.0167 8.95803 40.0167 20.0083ZM20.7081 14.7605C18.7589 15.5769 14.8772 17.2595 9.04627 19.7918C8.11332 20.175 7.61353 20.5415 7.56355 20.908C7.48977 21.5277 8.26549 21.7685 9.31194 22.0932C9.44697 22.1351 9.58651 22.1784 9.72932 22.2241C10.7622 22.5573 12.1283 22.9405 12.8447 22.9571C13.4944 22.9738 14.2108 22.7072 15.0104 22.1575C20.4582 18.4757 23.257 16.6098 23.4403 16.5765C23.5735 16.5431 23.7401 16.5098 23.8568 16.6098C23.9734 16.7097 23.9734 16.9097 23.9567 16.9596C23.8772 17.2908 20.6272 20.308 19.1482 21.681C18.7672 22.0347 18.5038 22.2793 18.4424 22.3407C18.2861 22.5016 18.127 22.6539 17.974 22.8003C17.0177 23.7156 16.3001 24.4025 18.0092 25.5227C18.7862 26.0357 19.4128 26.4632 20.03 26.8843C20.7758 27.3931 21.5077 27.8924 22.474 28.5215C22.7017 28.671 22.9196 28.826 23.1323 28.9773C23.9622 29.5677 24.711 30.1004 25.6394 30.0209C26.1725 29.9709 26.7222 29.4711 27.0055 27.9717C27.6718 24.4398 28.9713 16.7597 29.2712 13.5944C29.3045 13.3278 29.2712 12.978 29.2379 12.8114C29.2045 12.6448 29.1546 12.4282 28.9546 12.2616C28.7047 12.0617 28.3382 12.0284 28.1716 12.0284C27.4219 12.045 26.2558 12.4448 20.7081 14.7605Z" fill="url(#paint0_linear_2851_1818)"/>
<defs>
<linearGradient id="paint0_linear_2851_1818" x1="19.9917" y1="0" x2="19.9917" y2="39.7001" gradientUnits="userSpaceOnUse">
<stop stop-color="#2AABEE"/>
<stop offset="1" stop-color="#229ED9"/>
</linearGradient>
</defs>
</svg>
